#!OML:ASF C:\ViconDB\ViconDB\414\Spring2016\042216\male.ASF
:FULLY-SPECIFIED
:DEGREES
948
root 38.29 17.431 5.10245 -538.735 33.3174 -179.585
lowerback -0.583981 -1.43884 4.86371
upperback -0.380579 -1.93956 -0.963809
thorax -0.259201 -0.984383 -3.72268
lowerneck -0.0148935 9.00788 -2.74707
upperneck 2.20538 12.5456 -7.57748
head 1.03766 6.29706 -1.76428
rclavicle 1.12952e-013 -3.13086e-015
rhumerus -31.4208 0.437695 -94.4413
rradius 29.4899
rwrist 24.8519
rhand 11.7512 -22.1631
rfingers 7.12502
rthumb 36.7853 -48.2828
lclavicle 1.12952e-013 -3.13086e-015
lhumerus -37.5188 16.3684 85.4664
lradius 32.2588
lwrist -12.2311
lhand -15.3171 16.9328
lfingers 7.12502
lthumb 10.8589 46.632
rfemur -6.42132 19.7486 22.6051
rtibia 25.3539
rfoot -21.8712 -23.3295
rtoes -10.7479
lfemur -17.5712 -6.30846 -17.2322
ltibia 30.6211
lfoot -24.656 -15.6445
ltoes -11.0597
949
root 38.2847 17.4343 5.13747 -538.605 32.6937 -179.467
lowerback -0.404523 -1.51991 5.10083
upperback -0.359754 -2.03953 -0.894817
thorax -0.354404 -1.03704 -3.77934
lowerneck -0.137593 8.79657 -3.02395
upperneck 2.13556 12.2646 -7.52435
head 1.0065 6.15675 -1.70433
rclavicle -1.90726e-014 7.45443e-015
rhumerus -31.549 0.567443 -94.4997
rradius 29.4235
rwrist 24.9108
rhand 11.7183 -22.0398
rfingers 7.12502
rthumb 36.7543 -48.1674
lclavicle -1.90726e-014 7.45443e-015
lhumerus -37.2465 16.112 85.726
lradius 32.2349
lwrist -11.8181
lhand -15.0975 16.8413
lfingers 7.12502
lthumb 11.0707 46.5293
rfemur -6.53967 19.226 22.6997
rtibia 25.2964
rfoot -21.7751 -23.4101
rtoes -10.8332
lfemur -17.9022 -6.43356 -17.1114
ltibia 30.6929
lfoot -24.6357 -15.6634
ltoes -11.6679
950
root 38.284 17.4397 5.17223 -538.58 32.1504 -179.576
lowerback -0.289947 -1.52105 5.13591
upperback -0.339291 -2.03593 -0.958715
thorax -0.400839 -1.03654 -3.86211
lowerneck -0.179269 8.61986 -2.88875
upperneck 2.12181 12.0304 -7.60781
head 1.01734 6.03957 -1.75315
rclavicle -4.34278e-015 -1.31695e-015
rhumerus -31.6643 0.444282 -94.6355
rradius 29.3156
rwrist 24.9872
rhand 11.6007 -21.9978
rfingers 7.12502
rthumb 36.6429 -48.1538
lclavicle -4.34278e-015 -1.31695e-015
lhumerus -37.1118 15.1603 86.0471
lradius 32.634
lwrist -11.3813
lhand -14.8388 17.2854
lfingers 7.12502
lthumb 11.3202 46.9598
rfemur -6.65684 19.1741 22.642
rtibia 25.2338
rfoot -21.9603 -23.8333
rtoes -10.5326
lfemur -18.2061 -6.50902 -17.1869
ltibia 30.7624
lfoot -24.9351 -15.0811
ltoes -12.6712
951
root 38.2767 17.4434 5.20497 -538.514 31.4979 -179.649
lowerback -0.196462 -1.58782 5.27852
upperback -0.337989 -2.12 -0.953982
thorax -0.465906 -1.08086 -3.93383
lowerneck -0.260935 8.52641 -2.76365
upperneck 2.18162 11.9314 -7.82598
head 1.07076 5.98863 -1.8368
rclavicle 2.99434e-014 5.18704e-015
rhumerus -31.7325 0.42586 -94.6519
rradius 29.1675
rwrist 24.9367
rhand 11.627 -22.2233
rfingers 7.12502
rthumb 36.6678 -48.3729
lclavicle 2.99434e-014 5.18704e-015
lhumerus -36.9039 15.0277 86.2041
lradius 32.5575
lwrist -11.5343
lhand -14.4251 17.1345
lfingers 7.12502
lthumb 11.7192 46.7867
rfemur -6.79876 18.6098 22.5148
rtibia 25.148
rfoot -21.9071 -23.8435
rtoes -10.5702
lfemur -18.5449 -6.59338 -17.2839
ltibia 30.8679
lfoot -25.4376 -14.5314
ltoes -13.6711
952
root 38.2763 17.4504 5.23866 -538.64 30.8783 -180.085
lowerback -0.122559 -1.65731 4.93769
upperback -0.336824 -2.2091 -0.963239
thorax -0.502916 -1.12529 -3.74838
lowerneck -0.266147 8.4537 -2.86382
upperneck 2.1485 11.8416 -7.89231
head 1.05701 5.9466 -1.84363
rclavicle -3.13552e-014 -1.78906e-015
rhumerus -31.8385 0.340425 -94.5829
rradius 29.0131
rwrist 25.0075
rhand 11.4608 -22.3724
rfingers 7.12502
rthumb 36.5105 -48.5619
lclavicle -3.13552e-014 -1.78906e-015
lhumerus -36.7795 14.5403 86.5834
lradius 32.7309
lwrist -11.3651
lhand -14.2314 17.6386
lfingers 7.12502
lthumb 11.906 47.2801
rfemur -6.93135 18.2048 22.0885
rtibia 25.1039
rfoot -21.9433 -24.0068
rtoes -10.6486
lfemur -18.8434 -6.78979 -17.6696
ltibia 30.9545
lfoot -26.1687 -13.8982
ltoes -14.8191
953
root 38.2734 17.4525 5.26856 -538.639 30.2711 -180.057
lowerback 0.0818893 -1.69449 5.08178
upperback -0.370613 -2.24714 -0.988082
thorax -0.662979 -1.14998 -3.84727
lowerneck 0.00413838 8.33305 -2.54203
upperneck 2.00812 11.6578 -8.07041
head 0.993809 5.86712 -1.97045
rclavicle -3.38307e-014 -3.47873e-016
rhumerus -32.1098 0.126818 -94.6593
rradius 28.9173
rwrist 25.4845
rhand 11.4986 -22.3382
rfingers 7.12502
rthumb 36.5463 -48.5186
lclavicle -3.38307e-014 -3.47873e-016
lhumerus -36.7266 13.9465 86.7739
lradius 32.7676
lwrist -11.0718
lhand -14.601 17.2728
lfingers 7.12502
lthumb 11.5496 46.9346
rfemur -6.88976 18.0263 22.156
rtibia 25.0164
rfoot -22.0769 -24.368
rtoes -10.3852
lfemur -19.0245 -6.89877 -17.6296
ltibia 31.1021
lfoot -27.5115 -12.9802
ltoes -15.7512
954
root 38.2678 17.4559 5.29616 -538.702 29.6174 -180.237
lowerback 0.147798 -1.76622 5.01279
upperback -0.292094 -2.34118 -0.932677
thorax -0.623725 -1.19392 -3.74913
lowerneck -0.053042 8.17444 -2.66666
upperneck 1.89255 11.4489 -8.17043
head 0.959538 5.7675 -1.9852
rclavicle 3.40636e-014 -9.83984e-015
rhumerus -32.1203 0.238188 -94.5684
rradius 28.7919
rwrist 25.3714
rhand 11.2737 -22.4192
rfingers 7.12502
rthumb 36.3334 -48.6531
lclavicle 3.40636e-014 -9.83984e-015
lhumerus -36.3409 13.6072 87.1625
lradius 32.6337
lwrist -10.9275
lhand -14.4578 17.3573
lfingers 7.12502
lthumb 11.6877 47.0113
rfemur -6.886 17.7095 21.99
rtibia 24.952
rfoot -22.3377 -24.5408
rtoes -10.1991
lfemur -19.2004 -6.73352 -17.867
ltibia 31.2538
lfoot -28.4992 -12.0627
ltoes -16.6245
955
root 38.2617 17.4598 5.32388 -538.654 29.1165 -180.217
lowerback 0.225444 -1.80195 5.08809
upperback -0.201917 -2.38539 -0.795817
thorax -0.576165 -1.2126 -3.64855
lowerneck -0.178568 8.05976 -2.97674
upperneck 1.7495 11.2938 -8.13207
head 0.909522 5.69336 -1.92312
rclavicle 4.46303e-014 1.49089e-015
rhumerus -32.1298 0.499753 -94.4607
rradius 28.6749
rwrist 25.7881
rhand 11.3343 -21.8358
rfingers 7.12502
rthumb 36.3908 -48.0554
lclavicle 4.46303e-014 1.49089e-015
lhumerus -36.0629 13.0558 87.8542
lradius 32.8113
lwrist -9.01734
lhand -15.5773 16.9265
lfingers 7.12502
lthumb 10.608 46.6387
rfemur -6.88306 17.7173 22.0227
rtibia 24.7871
rfoot -22.4088 -24.9371
rtoes -9.9539
lfemur -19.4373 -6.76321 -17.845
ltibia 31.5034
lfoot -29.2692 -10.3702
ltoes -17.2177
956
root 38.2524 17.4637 5.35145 -538.664 28.519 -180.408
lowerback 0.279282 -1.87747 4.97547
upperback -0.161627 -2.48386 -0.70393
thorax -0.56587 -1.25995 -3.48785
lowerneck -0.285892 7.95248 -3.20764
upperneck 1.68883 11.1565 -8.11206
head 0.889509 5.626 -1.8782
rclavicle 1.03104e-013 -2.78299e-015
rhumerus -32.1893 0.676805 -94.3017
rradius 28.5629
rwrist 26.085
rhand 11.1249 -22.0153
rfingers 7.12502
rthumb 36.1924 -48.2843
lclavicle 1.03104e-013 -2.78299e-015
lhumerus -35.8313 13.5635 88.002
lradius 32.8115
lwrist -9.53834
lhand -15.8909 16.9214
lfingers 7.12502
lthumb 10.3054 46.6489
rfemur -6.95688 17.3327 21.7894
rtibia 24.6811
rfoot -22.4496 -25.0404
rtoes -9.8707
lfemur -19.6517 -6.80412 -18.0416
ltibia 31.7438
lfoot -29.7301 -8.70196
ltoes -17.097
957
root 38.2491 17.4748 5.37527 -538.668 28.0795 -180.426
lowerback 0.370684 -1.82996 5.09981
upperback -0.220192 -2.41414 -0.773875
thorax -0.678908 -1.22999 -3.62651
lowerneck 0.144305 7.78292 -2.85158
upperneck 1.53878 10.8838 -8.16687
head 0.7859 5.50454 -1.97999
rclavicle 5.82874e-014 1.98785e-015
rhumerus -32.5017 0.407292 -94.3291
rradius 28.4442
rwrist 26.199
rhand 10.8712 -22.0848
rfingers 7.12502
rthumb 35.9521 -48.413
lclavicle 5.82874e-014 1.98785e-015
lhumerus -36.051 12.8616 88.1621
lradius 33.4007
lwrist -9.41569
lhand -15.5994 17.5266
lfingers 7.12502
lthumb 10.5866 47.24
rfemur -6.91026 17.3434 21.8006
rtibia 24.5385
rfoot -22.5477 -25.3925
rtoes -9.80145
lfemur -19.7893 -6.4957 -18.0629
ltibia 32.0351
lfoot -30.245 -5.83182
ltoes -18.2045
958
root 38.2396 17.4751 5.40073 -538.66 27.6002 -180.443
lowerback 0.502495 -1.83572 5.21787
upperback -0.224346 -2.41334 -0.757476
thorax -0.761314 -1.23223 -3.67115
lowerneck 0.267487 7.6257 -2.83517
upperneck 1.42656 10.6544 -8.15985
head 0.723312 5.39704 -1.99155
rclavicle 9.7653e-014 3.37934e-015
rhumerus -32.6718 0.270953 -94.2218
rradius 28.3193
rwrist 26.5659
rhand 10.8342 -21.9737
rfingers 7.12502
rthumb 35.9171 -48.3106
lclavicle 9.7653e-014 3.37934e-015
lhumerus -35.715 13.1973 87.9644
lradius 32.8148
lwrist -11.3491
lhand -14.5759 17.2913
lfingers 7.12502
lthumb 11.5737 46.9517
rfemur -6.9176 17.1462 21.7753
rtibia 24.4285
rfoot -22.5903 -25.5609
rtoes -9.57348
lfemur -19.8687 -6.28246 -18.0078
ltibia 32.3483
lfoot -30.3559 -2.89708
ltoes -17.089
959
root 38.2346 17.4803 5.42449 -538.694 27.157 -180.532
lowerback 0.57373 -1.82126 5.14752
upperback -0.213594 -2.39039 -0.710644
thorax -0.782887 -1.22051 -3.58153
lowerneck 0.374236 7.44321 -2.7954
upperneck 1.36121 10.3979 -8.17296
head 0.679907 5.27431 -2.01142
rclavicle 5.09075e-014 3.77691e-015
rhumerus -32.7871 0.284859 -94.1172
rradius 28.1979
rwrist 26.6621
rhand 10.5899 -22.3203
rfingers 7.12502
rthumb 35.6856 -48.7134
lclavicle 5.09075e-014 3.77691e-015
lhumerus -35.6638 12.8484 88.2366
lradius 33.0278
lwrist -11.3077
lhand -14.4845 17.4432
lfingers 7.12502
lthumb 11.6619 47.0986
rfemur -6.88525 17.085 21.7103
rtibia 24.3045
rfoot -22.6675 -25.8707
rtoes -9.4219
lfemur -19.9347 -6.02528 -18.0343
ltibia 32.726
lfoot -30.4945 0.837287
ltoes -16.7899
960
root 38.2316 17.4841 5.4477 -538.818 26.7634 -180.638
lowerback 0.693264 -1.80707 5.01337
upperback -0.162338 -2.36677 -0.661467
thorax -0.787146 -1.20689 -3.45298
lowerneck 0.416174 7.32518 -2.8781
upperneck 1.34099 10.2236 -8.00236
head 0.646494 5.18709 -1.94815
rclavicle -4.11298e-014 1.09332e-014
rhumerus -32.8554 0.14762 -93.9317
rradius 27.9823
rwrist 26.8832
rhand 10.526 -22.0122
rfingers 7.12502
rthumb 35.625 -48.4199
lclavicle -4.11298e-014 1.09332e-014
lhumerus -35.5942 12.9062 88.3809
lradius 33.1384
lwrist -11.3653
lhand -14.4942 17.4517
lfingers 7.12502
lthumb 11.6526 47.1077
rfemur -6.76189 17.318 21.6988
rtibia 24.2285
rfoot -22.7878 -26.4463
rtoes -9.36393
lfemur -19.8797 -5.61693 -18.0514
ltibia 33.1427
lfoot -30.419 4.4738
ltoes -16.1822
961
root 38.2266 17.4855 5.46904 -538.929 26.3791 -180.808
lowerback 0.755687 -1.77829 4.88628
upperback -0.116155 -2.32742 -0.664789
thorax -0.765776 -1.18525 -3.38483
lowerneck 0.405294 7.18386 -2.89644
upperneck 1.39951 10.0302 -7.87175
head 0.652273 5.08666 -1.90402
rclavicle 2.78299e-014 -3.18055e-015
rhumerus -32.8097 -0.0772907 -93.767
rradius 27.7574
rwrist 26.9453
rhand 10.6071 -22.08
rfingers 7.12502
rthumb 35.7019 -48.4692
lclavicle 2.78299e-014 -3.18055e-015
lhumerus -35.4451 12.7315 88.6009
lradius 33.2062
lwrist -11.1117
lhand -15.1432 17.4757
lfingers 7.12502
lthumb 11.0267 47.166
rfemur -6.70857 17.3942 21.5661
rtibia 24.1738
rfoot -22.8629 -26.8203
rtoes -9.30927
lfemur -19.8767 -5.06081 -18.176
ltibia 33.6422
lfoot -30.4546 8.62432
ltoes -14.804
